<svg width="933" height="518" viewBox="0 0 933 518" fill="none" xmlns="http://www.w3.org/2000/svg">
<mask id="mask0_1045_100" style="mask-type:alpha" maskUnits="userSpaceOnUse" x="4" y="0" width="925" height="510">
<rect x="4" width="925" height="510" fill="url(#paint0_linear_1045_100)"/>
</mask>
<g mask="url(#mask0_1045_100)">
<rect x="-19" width="960" height="534.744" fill="#EEB83B"/>
<g opacity="0.3">
<path d="M-95.8977 792.251C-89.3166 790.959 -82.8585 787.883 -75.8469 786.16C-54.0738 779.146 -37.9593 762.164 -34.0229 745.182C-24.8586 729.923 -23.9975 707.28 -34.4535 686.36C-65.883 625.324 -105.062 573.824 -140.797 515.434C-147.809 504.974 -154.267 493.222 -147.378 486.207C-140.428 479.193 -128.619 484.915 -118.163 492.791C-59.7939 528.539 -7.88305 568.225 52.7001 599.174C73.1815 609.203 95.3852 608.773 111.5 599.605C128.475 595.667 145.02 579.977 152.462 557.765C154.185 551.674 156.829 544.721 158.552 538.568L33.0183 410.404C-1.36341 377.732 -37.5902 346.722 -62.3771 308.82C-100.265 250.86 -101.187 208.098 -160.848 156.229C-227.09 116.974 -287.242 119.619 -329.066 181.517C-346.472 206.806 -356.99 234.678 -371.32 262.181L-371.751 262.612C-399.244 277.01 -426.676 287.9 -452.385 304.882C-513.399 346.722 -516.474 406.466 -477.664 473.163C-424.954 532.908 -382.699 534.2 -325.13 571.671C-287.242 596.528 -256.243 632.707 -223.584 667.102L-95.8977 792.251Z" fill="#FFCD58"/>
<path d="M525.433 904.049C518.852 905.341 512.394 908.418 505.383 910.14C483.61 917.155 467.495 934.136 463.559 951.118C454.394 966.377 453.533 989.02 463.989 1009.94C495.419 1070.98 534.598 1122.48 570.333 1180.87C577.344 1191.39 583.802 1203.08 576.914 1210.09C569.964 1217.11 558.155 1211.38 547.699 1203.51C489.33 1167.76 437.419 1128.07 376.836 1097.13C356.354 1087.1 334.151 1087.53 318.036 1096.7C301.061 1100.63 284.516 1116.32 277.073 1138.53C275.351 1144.63 272.706 1151.58 270.984 1157.73L396.517 1285.9C430.899 1318.57 467.126 1349.58 491.913 1387.48C529.8 1445.44 530.723 1488.2 590.384 1540.07C656.625 1579.33 716.778 1576.68 758.602 1514.78C776.008 1489.49 786.525 1461.62 800.856 1434.12L801.287 1433.69C828.78 1419.29 856.211 1408.4 881.921 1391.42C942.935 1349.58 946.01 1289.83 907.2 1223.14C854.489 1163.39 812.235 1162.1 754.665 1124.63C716.778 1099.77 685.779 1063.59 653.119 1029.2L525.433 904.049Z" fill="#FFCD58"/>
<path d="M270.611 537.339C271.903 543.923 274.978 550.383 276.7 557.397C283.712 579.179 300.687 595.299 317.663 599.237C332.916 608.405 355.55 609.266 376.462 598.806C437.476 567.365 488.956 528.171 547.325 492.423C557.843 485.409 569.529 478.948 576.54 485.84C583.552 492.792 577.832 504.606 569.959 515.066C534.225 573.456 494.553 625.387 463.616 685.992C453.591 706.481 454.021 728.693 463.185 744.814C467.122 761.796 482.806 778.347 505.009 785.792C511.098 787.515 518.048 790.161 524.199 791.883L652.316 666.303C684.975 631.909 715.974 595.668 753.861 570.872C811.8 532.971 854.547 532.048 906.396 472.365C945.637 406.098 942.992 345.923 881.117 304.084C855.838 286.671 827.976 276.15 800.483 261.814L800.052 261.383C785.66 233.879 774.774 206.438 757.798 180.719C715.974 119.682 656.252 116.606 589.58 155.43C529.858 208.161 528.566 250.431 491.109 308.022C466.261 345.923 430.095 376.934 395.714 409.606L270.611 537.339Z" fill="#FFCD58"/>
<path d="M158.916 1158.96C157.624 1152.38 154.549 1145.92 152.827 1138.9C145.815 1117.12 128.84 1101 111.864 1097.07C96.6109 1087.9 73.9768 1087.04 53.0648 1097.5C-7.9489 1128.94 -59.4293 1168.13 -117.798 1203.88C-128.254 1210.89 -140.002 1217.35 -147.013 1210.46C-154.025 1203.51 -148.305 1191.7 -140.432 1181.24C-104.697 1122.85 -65.0263 1070.92 -34.0889 1010.31C-24.0635 989.821 -24.494 967.609 -33.6584 951.489C-37.5947 934.507 -53.2787 917.956 -75.4823 910.511C-81.5714 908.788 -88.5215 906.142 -94.6721 904.419L-222.788 1030C-255.448 1064.39 -286.447 1100.63 -324.335 1125.43C-382.273 1163.33 -425.019 1164.25 -476.869 1223.94C-516.109 1290.2 -513.465 1350.38 -451.59 1392.22C-426.311 1409.63 -398.449 1420.15 -370.956 1434.49L-370.525 1434.92C-356.133 1462.42 -345.246 1489.86 -328.271 1515.58C-286.447 1576.62 -226.725 1579.7 -160.053 1540.87C-100.331 1488.14 -99.0389 1445.87 -61.5819 1388.28C-36.7336 1350.38 -0.568269 1319.37 33.8134 1286.7L158.916 1158.96Z" fill="#FFCD58"/>
<path d="M-44.427 1028.4C-40.7366 1022.8 -38.2764 1016.03 -34.5246 1009.88C-24.0071 989.574 -24.6221 966.132 -33.9095 951.303C-38.2149 934.014 -53.6529 917.401 -75.795 910.018C-141.114 889.036 -205.265 880.422 -271.752 864.363C-284.115 861.902 -297.031 858.21 -297.031 848.366C-297.031 838.521 -284.669 834.153 -271.752 832.368C-205.142 816.371 -140.438 807.695 -75.795 786.714C-54.2064 779.331 -38.8299 763.272 -33.9095 745.428C-24.6836 730.6 -24.0071 707.834 -34.5246 686.853C-37.5999 681.254 -40.6751 674.486 -43.7504 669.01L-223.101 667.164C-270.584 668.394 -318.005 672.086 -362.412 662.857C-430.191 648.644 -461.006 619.11 -539.917 624.586C-614.462 643.721 -655.179 688.083 -641.033 761.487C-635.436 791.698 -623.196 818.832 -613.909 848.427V849.043C-623.135 878.638 -634.882 905.772 -641.033 935.983C-654.564 1008.77 -614.524 1053.13 -539.917 1072.88C-460.39 1077.81 -429.576 1048.83 -362.412 1034.61C-318.066 1025.38 -270.584 1029.01 -223.101 1030.31L-44.427 1028.4Z" fill="#FFCD58"/>
<path d="M473.944 667.963C470.253 673.563 467.793 680.331 464.041 686.484C453.524 706.788 454.139 730.231 463.426 745.059C467.732 762.349 483.17 778.961 505.312 786.345C570.631 807.326 634.781 815.94 701.269 831.999C713.631 834.46 726.548 838.152 726.548 847.997C726.548 857.841 714.185 862.21 701.269 863.994C634.658 879.991 569.954 888.667 505.312 909.648C483.723 917.032 468.347 933.091 463.426 950.934C454.2 965.762 453.524 988.528 464.041 1009.51C467.117 1015.11 470.192 1021.88 473.267 1027.35L652.618 1029.2C700.1 1027.97 747.521 1024.28 791.928 1033.51C859.707 1047.72 890.522 1077.25 969.434 1071.78C1043.98 1052.64 1084.7 1008.28 1070.55 934.875C1064.95 904.664 1052.71 877.53 1043.43 847.935V847.32C1052.65 817.724 1064.4 790.59 1070.55 760.38C1084.08 687.591 1044.04 643.229 969.434 623.478C889.907 618.556 859.092 647.536 791.928 661.749C747.583 670.978 700.1 667.348 652.618 666.056L473.944 667.963Z" fill="#FFCD58"/>
<path d="M34.5787 588.901C40.1758 592.593 46.9414 595.054 53.0919 598.807C73.3888 609.329 96.8225 608.713 111.645 599.422C128.928 595.115 145.535 579.672 152.916 557.521C173.889 492.178 182.5 428.003 198.553 361.491C201.013 349.124 204.704 336.203 214.544 336.203C224.385 336.203 228.752 348.57 230.536 361.491C246.527 428.127 255.2 492.855 276.173 557.521C283.554 579.118 299.607 594.5 317.444 599.422C332.266 608.652 355.023 609.329 375.997 598.807C381.594 595.731 388.36 592.654 393.834 589.578L395.679 410.16C394.449 362.66 390.758 315.221 399.984 270.798C414.192 202.993 443.715 172.167 438.241 93.2257C419.174 18.5914 374.828 -22.0791 301.452 -7.92749C271.253 -2.32838 244.129 9.91583 214.544 19.2067H213.929C184.345 9.97736 157.221 -1.77462 127.022 -7.92749C54.2606 -21.4638 9.91495 18.5914 -9.82839 93.2257C-14.7488 172.782 14.2203 203.608 28.4282 270.798C37.654 315.16 34.0252 362.66 32.7335 410.16L34.5787 588.901Z" fill="#FFCD58"/>
<path d="M394.88 1107.46C389.283 1103.77 382.517 1101.31 376.366 1097.56C356.069 1087.04 332.636 1087.65 317.813 1096.94C300.53 1101.25 283.923 1116.69 276.543 1138.84C255.569 1204.19 246.958 1268.36 230.905 1334.87C228.445 1347.24 224.755 1360.16 214.914 1360.16C205.073 1360.16 200.706 1347.8 198.922 1334.87C182.931 1268.24 174.258 1203.51 153.285 1138.84C145.904 1117.25 129.851 1101.87 112.015 1096.94C97.1918 1087.71 74.4346 1087.04 53.4612 1097.56C47.8642 1100.64 41.0986 1103.71 35.6246 1106.79L33.7794 1286.21C35.0095 1333.71 38.6999 1381.14 29.474 1425.57C15.2662 1493.37 -14.2566 1524.2 -8.78261 1603.14C10.3457 1677.71 54.6913 1718.44 128.068 1704.29C158.267 1698.69 185.391 1686.45 214.975 1677.16H215.59C245.175 1686.39 272.299 1698.14 302.498 1704.29C375.259 1717.83 419.605 1677.77 439.348 1603.14C444.269 1523.58 415.3 1492.76 401.092 1425.57C391.866 1381.21 395.495 1333.71 396.786 1286.21L394.88 1107.46Z" fill="#FFCD58"/>
</g>
</g>
<defs>
<linearGradient id="paint0_linear_1045_100" x1="9.57594" y1="7.69084e-06" x2="963.294" y2="434.773" gradientUnits="userSpaceOnUse">
<stop stop-color="#FBFCFB"/>
<stop offset="1" stop-color="#D4DADA"/>
</linearGradient>
</defs>
</svg>
