<svg width="1061" height="666" viewBox="0 0 1061 666" fill="none" xmlns="http://www.w3.org/2000/svg">
<g opacity="0.3">
<path d="M-108.776 700.63C-102.195 699.337 -95.7369 696.261 -88.7253 694.538C-66.9523 687.524 -50.8377 670.542 -46.9013 653.56C-37.737 638.301 -36.876 615.658 -47.3319 594.739C-78.7614 533.702 -117.94 482.203 -153.675 423.812C-160.687 413.352 -167.145 401.6 -160.257 394.586C-153.306 387.572 -141.497 393.294 -131.041 401.169C-72.6723 436.918 -20.7615 476.604 39.8217 507.552C60.3031 517.582 82.5068 517.151 98.6213 507.983C115.597 504.045 132.142 488.356 139.584 466.144C141.306 460.052 143.951 453.1 145.673 446.947L20.1399 318.782C-14.2418 286.111 -50.4687 255.1 -75.2555 217.199C-113.143 159.239 -114.066 116.476 -173.726 64.6074C-239.968 25.3521 -300.121 27.9978 -341.944 89.8957C-359.351 115.184 -369.868 143.057 -384.199 170.56L-384.629 170.991C-412.123 185.388 -439.554 196.279 -465.264 213.261C-526.277 255.1 -529.353 314.845 -490.542 381.542C-437.832 441.286 -395.577 442.578 -338.008 480.049C-300.121 504.907 -269.122 541.086 -236.462 575.48L-108.776 700.63Z" fill="#E6E6E6"/>
<path d="M512.555 812.427C505.974 813.72 499.516 816.796 492.504 818.519C470.731 825.533 454.617 842.515 450.68 859.497C441.516 874.756 440.655 897.398 451.111 918.318C482.54 979.355 521.719 1030.85 557.454 1089.24C564.466 1099.77 570.924 1111.46 564.035 1118.47C557.085 1125.49 545.276 1119.76 534.82 1111.89C476.451 1076.14 424.54 1036.45 363.957 1005.5C343.476 995.475 321.272 995.906 305.158 1005.07C288.182 1009.01 271.637 1024.7 264.195 1046.91C262.473 1053 259.828 1059.96 258.106 1066.11L383.639 1194.27C418.021 1226.95 454.248 1257.96 479.034 1295.86C516.922 1353.82 517.845 1396.58 577.505 1448.45C643.747 1487.7 703.9 1485.06 745.724 1423.16C763.13 1397.87 773.647 1370 787.978 1342.5L788.408 1342.07C815.901 1327.67 843.333 1316.78 869.042 1299.8C930.056 1257.96 933.131 1198.21 894.321 1131.52C841.611 1071.77 799.356 1070.48 741.787 1033.01C703.899 1008.15 672.901 971.971 640.241 937.577L512.555 812.427Z" fill="#E6E6E6"/>
<path d="M257.732 445.718C259.024 452.301 262.099 458.762 263.822 465.776C270.833 487.557 287.809 503.677 304.784 507.615C320.038 516.783 342.672 517.645 363.584 507.185C424.598 475.743 476.078 436.55 534.447 400.802C544.964 393.787 556.65 387.327 563.662 394.218C570.674 401.171 564.954 412.984 557.081 423.444C521.346 481.835 481.675 533.765 450.738 594.371C440.712 614.86 441.143 637.072 450.307 653.192C454.243 670.174 469.927 686.725 492.131 694.17C498.22 695.893 505.17 698.539 511.321 700.262L639.437 574.682C672.097 540.287 703.096 504.047 740.983 479.251C798.922 441.349 841.668 440.426 893.517 380.743C932.758 314.477 930.113 254.302 868.239 212.462C842.96 195.05 815.098 184.528 787.604 170.192L787.174 169.761C772.781 142.258 761.895 114.816 744.92 89.0972C703.096 28.0607 643.374 24.9843 576.701 63.8089C516.979 116.539 515.688 158.809 478.23 216.4C453.382 254.302 417.217 285.312 382.835 317.984L257.732 445.718Z" fill="#E6E6E6"/>
<path d="M146.038 1067.34C144.746 1060.76 141.671 1054.3 139.949 1047.28C132.937 1025.5 115.961 1009.38 98.9858 1005.44C83.7324 996.276 61.0983 995.415 40.1864 1005.87C-20.8273 1037.32 -72.3077 1076.51 -130.677 1112.26C-141.133 1119.27 -152.88 1125.73 -159.892 1118.84C-166.904 1111.89 -161.183 1100.08 -153.311 1089.62C-117.576 1031.22 -77.9047 979.294 -46.9673 918.689C-36.9419 898.2 -37.3724 875.988 -46.5368 859.867C-50.4731 842.885 -66.1571 826.334 -88.3607 818.889C-94.4498 817.166 -101.4 814.521 -107.55 812.798L-235.667 938.378C-268.326 972.772 -299.325 1009.01 -337.213 1033.81C-395.151 1071.71 -437.898 1072.63 -489.747 1132.32C-528.988 1198.58 -526.343 1258.76 -464.468 1300.6C-439.189 1318.01 -411.327 1328.53 -383.834 1342.87L-383.404 1343.3C-369.011 1370.8 -358.125 1398.24 -341.149 1423.96C-299.325 1485 -239.603 1488.07 -172.931 1449.25C-113.209 1396.52 -111.917 1354.25 -74.4603 1296.66C-49.612 1258.76 -13.4467 1227.75 20.935 1195.08L146.038 1067.34Z" fill="#E6E6E6"/>
<path d="M-57.3054 936.777C-53.6151 931.178 -51.1548 924.41 -47.403 918.257C-36.8855 897.953 -37.5005 874.51 -46.7878 859.682C-51.0933 842.392 -66.5313 825.779 -88.6734 818.396C-153.992 797.415 -218.143 788.801 -284.631 772.742C-296.993 770.281 -309.91 766.589 -309.91 756.744C-309.91 746.9 -297.547 742.531 -284.631 740.747C-218.02 724.749 -153.316 716.074 -88.6734 695.092C-67.0848 687.709 -51.7083 671.65 -46.7878 653.807C-37.562 638.978 -36.8855 616.213 -47.403 595.231C-50.4783 589.632 -53.5535 582.864 -56.6288 577.388L-235.98 575.542C-283.462 576.773 -330.883 580.464 -375.29 571.235C-443.07 557.022 -473.884 527.488 -552.796 532.964C-627.341 552.1 -668.058 596.462 -653.911 669.866C-648.314 700.076 -636.075 727.21 -626.787 756.806V757.421C-636.013 787.016 -647.761 814.15 -653.911 844.361C-667.443 917.15 -627.402 961.512 -552.796 981.262C-473.269 986.185 -442.454 957.205 -375.29 942.992C-330.945 933.762 -283.462 937.392 -235.98 938.685L-57.3054 936.777Z" fill="#E6E6E6"/>
<path d="M461.065 576.342C457.375 581.941 454.915 588.709 451.163 594.862C440.646 615.167 441.26 638.609 450.548 653.437C454.853 670.727 470.291 687.34 492.433 694.723C557.752 715.704 621.903 724.318 688.39 740.377C700.753 742.839 713.669 746.53 713.669 756.375C713.669 766.22 701.307 770.588 688.39 772.372C621.78 788.37 557.076 797.045 492.433 818.027C470.845 825.41 455.468 841.469 450.548 859.312C441.322 874.141 440.646 896.906 451.163 917.888C454.238 923.487 457.313 930.255 460.389 935.731L639.739 937.577C687.222 936.346 734.643 932.655 779.05 941.884C846.829 956.097 877.643 985.631 956.555 980.155C1031.1 961.019 1071.82 916.657 1057.67 843.253C1052.07 813.043 1039.83 785.909 1030.55 756.313V755.698C1039.77 726.103 1051.52 698.969 1057.67 668.758C1071.2 595.969 1031.16 551.607 956.555 531.857C877.028 526.934 846.214 555.914 779.05 570.128C734.704 579.357 687.222 575.727 639.739 574.434L461.065 576.342Z" fill="#E6E6E6"/>
<path d="M21.7003 497.279C27.2974 500.971 34.0629 503.432 40.2135 507.186C60.5104 517.707 83.9441 517.092 98.767 507.801C116.05 503.494 132.657 488.05 140.037 465.9C161.011 400.556 169.622 336.382 185.675 269.869C188.135 257.502 191.825 244.581 201.666 244.581C211.507 244.581 215.874 256.948 217.658 269.869C233.649 336.505 242.321 401.233 263.295 465.9C270.675 487.496 286.728 502.879 304.565 507.801C319.388 517.03 342.145 517.707 363.119 507.186C368.716 504.109 375.481 501.033 380.955 497.956L382.8 318.539C381.57 271.038 377.88 223.6 387.106 179.176C401.314 111.371 430.836 80.5455 425.362 1.60413C406.296 -73.0302 361.95 -113.701 288.574 -99.5491C258.374 -93.95 231.25 -81.7057 201.666 -72.4149H201.051C171.467 -81.6442 144.343 -93.3962 114.143 -99.5491C41.3821 -113.085 -2.9635 -73.0302 -22.7068 1.60413C-27.6273 81.1608 1.34192 111.987 15.5497 179.176C24.7756 223.538 21.1467 271.038 19.8551 318.539L21.7003 497.279Z" fill="#E6E6E6"/>
<path d="M382.001 1015.84C376.404 1012.15 369.639 1009.69 363.488 1005.94C343.191 995.416 319.757 996.031 304.934 1005.32C287.651 1009.63 271.045 1025.07 263.664 1047.22C242.691 1112.57 234.08 1176.74 218.027 1243.25C215.567 1255.62 211.876 1268.54 202.035 1268.54C192.194 1268.54 187.828 1256.17 186.044 1243.25C170.052 1176.62 161.38 1111.89 140.407 1047.22C133.026 1025.63 116.973 1010.24 99.1363 1005.32C84.3134 996.093 61.5562 995.416 40.5828 1005.94C34.9857 1009.01 28.2202 1012.09 22.7462 1015.17L20.9009 1194.58C22.131 1242.08 25.8214 1289.52 16.5956 1333.95C2.38776 1401.75 -27.1351 1432.58 -21.661 1511.52C-2.53271 1586.09 41.8129 1626.82 115.189 1612.67C145.389 1607.07 172.513 1594.83 202.097 1585.54H202.712C232.296 1594.77 259.42 1606.52 289.62 1612.67C362.381 1626.21 406.727 1586.15 426.47 1511.52C431.39 1431.96 402.421 1401.14 388.213 1333.95C378.987 1289.58 382.616 1242.08 383.908 1194.58L382.001 1015.84Z" fill="#E6E6E6"/>
</g>
</svg>
